<svg role="img" viewBox="0 0 24 24" xmlns="http://www.w3.org/2000/svg"><title>Cohere</title><path d="M12.01 1.706C6.315 1.706 1.706 6.315 1.706 12.01s4.609 10.304 10.304 10.304 10.304-4.609 10.304-10.304S17.705 1.706 12.01 1.706zm4.945 15.65c-1.328 1.139-3.042 1.838-4.945 1.838A7.321 7.321 0 0 1 4.685 12.01a7.321 7.321 0 0 1 7.325-7.325c1.903 0 3.617.7 4.945 1.838v2.545c-1.144-.949-2.73-1.503-4.475-1.503a4.706 4.706 0 0 0-4.705 4.706 4.706 4.706 0 0 0 4.705 4.705c1.745 0 3.33-.554 4.475-1.503z"/></svg>
